# xmcd
#
# Track frame offsets:
#	150
#	73915
#	97420
#	119780
#	169112
#	183522
#	206690
#	215910
#	237600
#	285852
#	304122
#	324125
#
# Disc length: 4513
#
# Revision: 1
# Processed by: cddbd v1.5.1PL0 Copyright (c) Steve Scherf et al.
# Submitted via: CDex 1.51
# Normalized: r0:TDELIM( - )
#
DISCID=c1119f0c
DTITLE=Miscellaneous - Capital Gold Jazz Legends
DYEAR=2004
DGENRE=Jazz
TTITLE0=Miles Davis - Concierto De Aranjuez
TTITLE1=Horace Silver - Song For My Father
TTITLE2=Herbie Hancock - Watermelon Man
TTITLE3=Cannonball Adderley feat. Miles Davis - Autumn Leaves (Les Feuilles Mortes)
TTITLE4=Thelonious Monk - Round Midnight
TTITLE5=Lee Morgan - The Sidewinder
TTITLE6=Dave Brubeck - Unsquare Dance
TTITLE7=Charles Mingus - Goodbye Pork Pie Hat
TTITLE8=John Coltrane - Blue Train
TTITLE9=Art Blakey and The Jazz Messengers - Moanin'
TTITLE10=Charlie Parker - Ornithology
TTITLE11=Django Reinhardt - Nuages
EXTD=YEAR: 2004
EXTT0=
EXTT1=
EXTT2=
EXTT3=
EXTT4=
EXTT5=
EXTT6=
EXTT7=
EXTT8=
EXTT9=
EXTT10=
EXTT11=
PLAYORDER=
